<?xml version="1.0" encoding="utf-8"?>
<!-- Generator: Adobe Illustrator 23.0.6, SVG Export Plug-In . SVG Version: 6.00 Build 0)  -->
<svg version="1.1" id="Слой_1" xmlns:svgjs="http://svgjs.com/svgjs"
	 xmlns="http://www.w3.org/2000/svg" xmlns:xlink="http://www.w3.org/1999/xlink" x="0px" y="0px" viewBox="0 0 512 512"
	 style="enable-background:new 0 0 512 512;" xml:space="preserve">
<style type="text/css">
	.st0{fill:#E2E2E2;stroke:#D3D2D8;stroke-width:8;stroke-miterlimit:10;}
	.st1{fill:#E09575;}
	.st2{fill:#D3D2D8;}
</style>
<g>
	<path class="st0" d="M61.5,199.8c9.4-7.5,21.1-10.4,33-9.2c-1.5-1.5-2.9-3.1-4.3-4.8C70.1,160.4,71,126.1,92.4,109
		c15.8-12.6,38.3-12.3,57.1-1.1c-6.8-20.8-2.1-42.9,13.7-55.5c21.4-17.1,55.1-10.5,75.3,14.8c1.4,1.7,2.6,3.4,3.8,5.2
		c1.5-11.9,6.9-22.6,16.3-30.1C280,25.2,313.8,31.8,334,57.1C357.3,86,438.2,189.4,494.3,261.3c-49.8,69.8-138.3,142-279.5,206
		C149,386.9,77.7,299.8,59.3,276.5C39.2,251.3,40.1,216.9,61.5,199.8z"/>
	<g>
		<path class="st1" d="M194.2,127.2c11.5,14.4,29.5,19,40.3,10.4c10.8-8.6,10.2-27.3-1.3-41.6s-29.5-19-40.3-10.4
			S182.7,112.8,194.2,127.2z"/>
		<path class="st1" d="M280.1,120.2c11.5,14.4,29.5,19,40.3,10.4c10.8-8.6,10.2-27.3-1.3-41.6c-11.5-14.4-29.5-19-40.3-10.4
			C268.1,87.2,268.6,105.8,280.1,120.2z"/>
		<path class="st1" d="M123.4,183.8c11.5,14.4,29.5,19,40.3,10.4c10.8-8.6,10.2-27.3-1.3-41.6c-11.5-14.4-29.5-19-40.3-10.4
			C111.3,150.8,111.9,169.4,123.4,183.8z"/>
		<path class="st1" d="M93.4,269.5c11.5,14.4,29.5,19,40.3,10.4c10.8-8.6,10.2-27.3-1.3-41.6c-11.5-14.4-29.5-19-40.3-10.4
			C81.3,236.5,81.9,255.1,93.4,269.5z"/>
		<path class="st1" d="M209.1,342.5c42.4,15.7,55.1-28.7,85.5-53c30.4-24.3,76.5-26.9,70.5-71.7c-6-44.8-54.8-60.1-74.8-44.2
			c-25.6,20.5-44.4-5.7-74,18c-29.6,23.6-8.2,47.8-33.9,68.2C162.6,275.7,166.7,326.8,209.1,342.5z"/>
	</g>
	<path class="st2" d="M214.8,467.3c13.2-6,26-12.1,38.3-18.2c2.1-1,4.1-2,6.1-3.1c40.6-20.5,76.1-41.7,107.1-63.3
		c1.5-1.1,3.1-2.2,4.6-3.2c16.8-11.9,32.2-23.9,46.4-35.9c2.6-2.2,5.1-4.4,7.6-6.6c28.5-25.2,51.4-50.6,69.3-75.7
		c-5.6-7.1-11.4-14.6-17.4-22.2c-6.5,12.2-14.1,24.5-22.9,36.9c-45.2,63.4-122.4,128.8-241.9,188.2
		C213.1,465.1,213.9,466.2,214.8,467.3z"/>
</g>
</svg>
